<?xml version="1.0" encoding="UTF-8"?>
<svg id="Layer_1" xmlns="http://www.w3.org/2000/svg" version="1.1" viewBox="0 0 720 720">
  <!-- Generator: Adobe Illustrator 30.2.1, SVG Export Plug-In . SVG Version: 2.1.1 Build 1)  -->
  <defs>
    <style>
      .st0, .st1, .st2 {
        fill: none;
      }

      .st0, .st1, .st2, .st3 {
        stroke: #231f20;
        stroke-linecap: round;
        stroke-linejoin: round;
      }

      .st0, .st4, .st3 {
        stroke-width: 1.5px;
      }

      .st1 {
        stroke-width: .99px;
      }

      .st2 {
        stroke-width: .75px;
      }

      .st5 {
        font-family: ArialRoundedMTBold, 'Arial Rounded MT Bold';
        font-size: 14.25px;
      }

      .st4 {
        fill: #fff;
        stroke: #000;
        stroke-miterlimit: 10;
      }
    </style>
  </defs>
  <g id="LWPOLYLINE">
    <polyline class="st0" points="173.08 646.35 332.75 646.35 345.23 646.35 351.76 646.35 354.78 646.35 357.14 646.35 359.96 646.35 362.57 646.35 366.28 646.35 366.94 646.35 370.23 646.35 371.56 646.35 373.81 646.35 376.42 646.35 389.18 646.35 546.92 646.35"/>
  </g>
  <g id="LWPOLYLINE1" data-name="LWPOLYLINE">
    <rect class="st1" x="173.08" width="373.84" height="718.16"/>
  </g>
  <g id="LWPOLYLINE2" data-name="LWPOLYLINE">
    <polyline class="st2" points="173.08 35.91 332.75 35.91 345.23 35.91 351.76 35.91 354.78 35.91 357.14 35.91 359.96 35.91 362.57 35.91 366.28 35.91 366.94 35.91 370.23 35.91 371.56 35.91 373.81 35.91 376.42 35.91 389.18 35.91 546.92 35.91"/>
  </g>
  <g>
    <rect class="st4" x="334.79" y="637.67" width="50.42" height="17.36" rx="8.68" ry="8.68"/>
    <text class="st5" transform="translate(345.17 651.33)"><tspan x="0" y="0">90%</tspan></text>
  </g>
  <g id="LWPOLYLINE3" data-name="LWPOLYLINE">
    <polyline class="st1" points="173.08 0 332.75 0 345.23 0 351.76 0 354.78 0 357.14 0 359.96 0 362.57 0 366.28 0 366.94 0 370.23 0 371.56 0 373.81 0 376.42 0 389.18 0 546.92 0"/>
  </g>
  <g id="LWPOLYLINE4" data-name="LWPOLYLINE">
    <polyline class="st1" points="173.08 718.16 332.75 718.16 345.23 718.16 351.76 718.16 354.78 718.16 357.14 718.16 359.96 718.16 362.57 718.16 366.28 718.16 366.94 718.16 370.23 718.16 371.56 718.16 373.81 718.16 376.42 718.16 389.18 718.16 546.92 718.16"/>
  </g>
  <g id="LWPOLYLINE5" data-name="LWPOLYLINE">
    <polyline class="st2" points="173.08 251.36 332.75 251.36 345.23 251.36 351.76 251.36 354.78 251.36 357.14 251.36 359.96 251.36 362.57 251.36 366.28 251.36 366.94 251.36 370.23 251.36 371.56 251.36 373.81 251.36 376.42 251.36 389.18 251.36 546.92 251.36"/>
  </g>
  <g id="LWPOLYLINE6" data-name="LWPOLYLINE">
    <polyline class="st2" points="173.08 323.17 332.75 323.17 345.23 323.17 351.76 323.17 354.78 323.17 357.14 323.17 359.96 323.17 362.57 323.17 366.28 323.17 366.94 323.17 370.23 323.17 371.56 323.17 373.81 323.17 376.42 323.17 389.18 323.17 546.92 323.17"/>
  </g>
  <g id="LWPOLYLINE7" data-name="LWPOLYLINE">
    <polyline class="st2" points="173.08 538.62 332.75 538.62 345.23 538.62 351.76 538.62 354.78 538.62 357.14 538.62 359.96 538.62 362.57 538.62 366.28 538.62 366.94 538.62 370.23 538.62 371.56 538.62 373.81 538.62 376.42 538.62 389.18 538.62 546.92 538.62"/>
  </g>
  <g id="LWPOLYLINE8" data-name="LWPOLYLINE">
    <polyline class="st2" points="173.08 394.99 332.75 394.99 345.23 394.99 351.76 394.99 354.78 394.99 357.14 394.99 359.96 394.99 362.57 394.99 366.28 394.99 366.94 394.99 370.23 394.99 371.56 394.99 373.81 394.99 376.42 394.99 389.18 394.99 546.92 394.99"/>
  </g>
  <g id="LWPOLYLINE9" data-name="LWPOLYLINE">
    <polyline class="st2" points="173.08 466.8 332.75 466.8 345.23 466.8 351.76 466.8 354.78 466.8 357.14 466.8 359.96 466.8 362.57 466.8 366.28 466.8 366.94 466.8 370.23 466.8 371.56 466.8 373.81 466.8 376.42 466.8 389.18 466.8 546.92 466.8"/>
  </g>
  <g id="LWPOLYLINE10" data-name="LWPOLYLINE">
    <polyline class="st2" points="173.08 107.72 332.75 107.72 345.23 107.72 351.76 107.72 354.78 107.72 357.14 107.72 359.96 107.72 362.57 107.72 366.28 107.72 366.94 107.72 370.23 107.72 371.56 107.72 373.81 107.72 376.42 107.72 389.18 107.72 546.92 107.72"/>
  </g>
  <g id="LWPOLYLINE11" data-name="LWPOLYLINE">
    <polyline class="st2" points="173.08 179.54 332.75 179.54 345.23 179.54 351.76 179.54 354.78 179.54 357.14 179.54 359.96 179.54 362.57 179.54 366.28 179.54 366.94 179.54 370.23 179.54 371.56 179.54 373.81 179.54 376.42 179.54 389.18 179.54 546.92 179.54"/>
  </g>
  <g id="LWPOLYLINE12" data-name="LWPOLYLINE">
    <polyline class="st0" points="173.08 71.82 332.75 71.82 345.23 71.82 351.76 71.82 354.78 71.82 357.14 71.82 359.96 71.82 362.57 71.82 366.28 71.82 366.94 71.82 370.23 71.82 371.56 71.82 373.81 71.82 376.42 71.82 389.18 71.82 546.92 71.82"/>
  </g>
  <g id="LWPOLYLINE13" data-name="LWPOLYLINE">
    <polyline class="st0" points="173.08 287.26 332.75 287.26 345.23 287.26 351.76 287.26 354.78 287.26 357.14 287.26 359.96 287.26 362.57 287.26 366.28 287.26 366.94 287.26 370.23 287.26 371.56 287.26 373.81 287.26 376.42 287.26 389.18 287.26 546.92 287.26"/>
  </g>
  <g id="LWPOLYLINE14" data-name="LWPOLYLINE">
    <polyline class="st0" points="173.08 359.08 332.75 359.08 345.23 359.08 351.76 359.08 354.78 359.08 357.14 359.08 359.96 359.08 362.57 359.08 366.28 359.08 366.94 359.08 370.23 359.08 371.56 359.08 373.81 359.08 376.42 359.08 389.18 359.08 546.92 359.08"/>
  </g>
  <g id="LWPOLYLINE15" data-name="LWPOLYLINE">
    <polyline class="st3" points="173.08 573.53 332.75 573.53 345.23 573.53 351.76 573.53 354.78 573.53 357.14 573.53 359.96 573.53 362.57 573.53 366.28 573.53 366.94 573.53 370.23 573.53 371.56 573.53 373.81 573.53 376.42 573.53 389.18 573.53 546.92 573.53"/>
  </g>
  <g id="LWPOLYLINE16" data-name="LWPOLYLINE">
    <polyline class="st2" points="173.08 682.25 332.75 682.25 345.23 682.25 351.76 682.25 354.78 682.25 357.14 682.25 359.96 682.25 362.57 682.25 366.28 682.25 366.94 682.25 370.23 682.25 371.56 682.25 373.81 682.25 376.42 682.25 389.18 682.25 546.92 682.25"/>
  </g>
  <g id="LWPOLYLINE17" data-name="LWPOLYLINE">
    <polyline class="st0" points="173.08 430.9 332.75 430.9 345.23 430.9 351.76 430.9 354.78 430.9 357.14 430.9 359.96 430.9 362.57 430.9 366.28 430.9 366.94 430.9 370.23 430.9 371.56 430.9 373.81 430.9 376.42 430.9 389.18 430.9 546.92 430.9"/>
  </g>
  <g id="LWPOLYLINE18" data-name="LWPOLYLINE">
    <polyline class="st0" points="173.08 502.71 332.75 502.71 345.23 502.71 351.76 502.71 354.78 502.71 357.14 502.71 359.96 502.71 362.57 502.71 366.28 502.71 366.94 502.71 370.23 502.71 371.56 502.71 373.81 502.71 376.42 502.71 389.18 502.71 546.92 502.71"/>
  </g>
  <g id="LWPOLYLINE19" data-name="LWPOLYLINE">
    <polyline class="st0" points="173.08 143.63 332.75 143.63 345.23 143.63 351.76 143.63 354.78 143.63 357.14 143.63 359.96 143.63 362.57 143.63 366.28 143.63 366.94 143.63 370.23 143.63 371.56 143.63 373.81 143.63 376.42 143.63 389.18 143.63 546.92 143.63"/>
  </g>
  <g id="LWPOLYLINE20" data-name="LWPOLYLINE">
    <polyline class="st0" points="173.08 215.45 332.75 215.45 345.23 215.45 351.76 215.45 354.78 215.45 357.14 215.45 359.96 215.45 362.57 215.45 366.28 215.45 366.94 215.45 370.23 215.45 371.56 215.45 373.81 215.45 376.42 215.45 389.18 215.45 546.92 215.45"/>
  </g>
  <rect class="st4" x="334.76" y="565.85" width="50.42" height="17.36" rx="8.68" ry="8.68"/>
  <text class="st5" transform="translate(345.19 579.51)"><tspan x="0" y="0">80%</tspan></text>
  <rect class="st4" x="334.74" y="494.03" width="50.42" height="17.36" rx="8.68" ry="8.68"/>
  <text class="st5" transform="translate(345.22 507.69)"><tspan x="0" y="0">70%</tspan></text>
  <g>
    <rect class="st4" x="334.79" y="422.22" width="50.42" height="17.36" rx="8.68" ry="8.68"/>
    <text class="st5" transform="translate(345.17 435.88)"><tspan x="0" y="0">60%</tspan></text>
  </g>
  <g>
    <rect class="st4" x="334.79" y="350.4" width="50.42" height="17.36" rx="8.68" ry="8.68"/>
    <text class="st5" transform="translate(345.17 364.06)"><tspan x="0" y="0">50%</tspan></text>
  </g>
  <g>
    <rect class="st4" x="334.79" y="278.58" width="50.42" height="17.36" rx="8.68" ry="8.68"/>
    <text class="st5" transform="translate(345.17 292.25)"><tspan x="0" y="0">40%</tspan></text>
  </g>
  <g>
    <rect class="st4" x="334.79" y="206.77" width="50.42" height="17.36" rx="8.68" ry="8.68"/>
    <text class="st5" transform="translate(345.17 220.43)"><tspan x="0" y="0">30%</tspan></text>
  </g>
  <g>
    <rect class="st4" x="334.79" y="134.95" width="50.42" height="17.36" rx="8.68" ry="8.68"/>
    <text class="st5" transform="translate(345.17 148.61)"><tspan x="0" y="0">20%</tspan></text>
  </g>
  <g>
    <rect class="st4" x="334.79" y="63.14" width="50.42" height="17.36" rx="8.68" ry="8.68"/>
    <text class="st5" transform="translate(345.17 76.8)"><tspan x="0" y="0">10%</tspan></text>
  </g>
  <g id="LWPOLYLINE21" data-name="LWPOLYLINE">
    <polyline class="st2" points="173.08 610.44 332.75 610.44 345.23 610.44 351.76 610.44 354.78 610.44 357.14 610.44 359.96 610.44 362.57 610.44 366.28 610.44 366.94 610.44 370.23 610.44 371.56 610.44 373.81 610.44 376.42 610.44 389.18 610.44 546.92 610.44"/>
  </g>
</svg>